<svg width="12" height="14" viewBox="0 0 12 14" fill="none" xmlns="http://www.w3.org/2000/svg">
    <path fill-rule="evenodd" clip-rule="evenodd"
    d="M2.72163 3.4878H1.80288C1.49681 3.48781 1.20212 3.6 0.978137 3.80177C0.754153 4.00355 0.617518 4.27992 0.595743 4.57524L0.00306671 12.6031C-0.00875598 12.7635 0.0136858 12.9245 0.0689939 13.076C0.124302 13.2276 0.211291 13.3666 0.32454 13.4842C0.43779 13.6019 0.574873 13.6957 0.727247 13.7599C0.879621 13.824 1.04402 13.8571 1.2102 13.8571H10.7898C10.956 13.857 11.1204 13.8239 11.2727 13.7597C11.425 13.6955 11.562 13.6016 11.6753 13.484C11.7885 13.3664 11.8755 13.2275 11.9308 13.0759C11.9862 12.9244 12.0087 12.7634 11.997 12.6031L11.4043 4.57524C11.3825 4.27992 11.2459 4.00355 11.0219 3.80177C10.7979 3.6 10.5032 3.48781 10.1972 3.4878H9.28499V3.32055C9.28499 2.47777 8.9389 1.66951 8.32285 1.07358C7.7068 0.477645 6.87125 0.142853 6.00003 0.142853C4.25208 0.142853 2.63657 1.48953 2.71506 3.32055L2.72163 3.4878ZM9.28499 4.49128V7C9.28499 7.13307 9.23034 7.26069 9.13307 7.35478C9.0358 7.44888 8.90387 7.50174 8.76631 7.50174C8.62875 7.50174 8.49682 7.44888 8.39955 7.35478C8.30228 7.26069 8.24763 7.13307 8.24763 7V4.49128H3.75242V7C3.75242 7.13307 3.69777 7.26069 3.6005 7.35478C3.50323 7.44888 3.3713 7.50174 3.23374 7.50174C3.09618 7.50174 2.96425 7.44888 2.86698 7.35478C2.76971 7.26069 2.71506 7.13307 2.71506 7C2.71506 7 2.76001 5.82759 2.74515 4.49128H1.80288C1.75922 4.49134 1.71721 4.50738 1.68526 4.53617C1.65332 4.56496 1.63382 4.60437 1.63068 4.64649L1.03766 12.6744C1.03595 12.6973 1.03914 12.7203 1.04704 12.742C1.05493 12.7637 1.06737 12.7835 1.08356 12.8004C1.09975 12.8172 1.11935 12.8306 1.14114 12.8398C1.16293 12.8489 1.18644 12.8537 1.2102 12.8537H10.7898C10.8136 12.8536 10.837 12.8488 10.8588 12.8396C10.8805 12.8304 10.9001 12.817 10.9163 12.8002C10.9324 12.7834 10.9449 12.7635 10.9528 12.7419C10.9607 12.7203 10.964 12.6973 10.9624 12.6744L10.3694 4.64649C10.3662 4.60437 10.3467 4.56496 10.3148 4.53617C10.2828 4.50738 10.2408 4.49134 10.1972 4.49128H9.28499ZM8.24763 3.4878V3.32055C8.24763 2.74392 8.01083 2.19089 7.58932 1.78315C7.16782 1.37541 6.59613 1.14634 6.00003 1.14634C5.40392 1.14634 4.83224 1.37541 4.41073 1.78315C3.98922 2.19089 3.75242 2.74392 3.75242 3.32055V3.4878H8.24763Z"
    fill="#1E1E1E" />
</svg>