<svg width="8" height="6" viewBox="0 0 8 6" fill="none" xmlns="http://www.w3.org/2000/svg">
<path d="M2.47482 4.86322L0.80665 3.19323C0.763028 3.14902 0.711076 3.11393 0.653805 3.08998C0.596534 3.06603 0.535084 3.05369 0.473016 3.05369C0.410948 3.05369 0.349498 3.06603 0.292227 3.08998C0.234956 3.11393 0.183004 3.14902 0.139382 3.19323C0.0952284 3.2369 0.0601723 3.2889 0.0362462 3.34624C0.0123202 3.40357 0 3.46509 0 3.52722C0 3.58936 0.0123202 3.65088 0.0362462 3.70821C0.0601723 3.76554 0.0952284 3.81755 0.139382 3.86122L2.13642 5.86044C2.3223 6.04652 2.62257 6.04652 2.80845 5.86044L7.86062 0.80753C7.90477 0.76386 7.93983 0.711852 7.96375 0.654518C7.98768 0.597185 8 0.535667 8 0.473532C8 0.411396 7.98768 0.349879 7.96375 0.292546C7.93983 0.235212 7.90477 0.183204 7.86062 0.139534C7.817 0.0953323 7.76504 0.0602379 7.70777 0.0362857C7.6505 0.0123335 7.58905 0 7.52698 0C7.46492 0 7.40347 0.0123335 7.34619 0.0362857C7.28892 0.0602379 7.23697 0.0953323 7.19335 0.139534L2.47482 4.86322Z" fill="white"/>
</svg>