<svg width="17" height="19" viewBox="0 0 17 19" fill="none" xmlns="http://www.w3.org/2000/svg">
<path fill-rule="evenodd" clip-rule="evenodd" d="M4.161 4.85145H2.945C2.53992 4.85147 2.14988 4.99995 1.85343 5.26701C1.55698 5.53406 1.37614 5.89985 1.34732 6.29072L0.562897 16.9158C0.547249 17.1281 0.576951 17.3411 0.650153 17.5418C0.723355 17.7424 0.838488 17.9263 0.988376 18.082C1.13827 18.2377 1.3197 18.3619 1.52137 18.4468C1.72304 18.5317 1.94063 18.5756 2.16058 18.5756H14.8395C15.0594 18.5754 15.277 18.5315 15.4786 18.4466C15.6802 18.3616 15.8615 18.2374 16.0114 18.0817C16.1613 17.9261 16.2764 17.7422 16.3497 17.5416C16.4229 17.3411 16.4527 17.128 16.4372 16.9158L15.6528 6.29072C15.624 5.89985 15.4431 5.53406 15.1467 5.26701C14.8502 4.99995 14.4602 4.85147 14.0551 4.85145H12.8478V4.6301C12.8478 3.51465 12.3897 2.4449 11.5744 1.65616C10.759 0.867424 9.65314 0.424316 8.50005 0.424316C6.18659 0.424316 4.04841 2.20668 4.1523 4.6301L4.161 4.85145ZM12.8478 6.17959V9.49995C12.8478 9.67607 12.7755 9.84498 12.6467 9.96951C12.518 10.0941 12.3434 10.164 12.1613 10.164C11.9792 10.164 11.8046 10.0941 11.6759 9.96951C11.5471 9.84498 11.4748 9.67607 11.4748 9.49995V6.17959H5.52528V9.49995C5.52528 9.67607 5.45295 9.84498 5.32421 9.96951C5.19547 10.0941 5.02086 10.164 4.83879 10.164C4.65672 10.164 4.48211 10.0941 4.35337 9.96951C4.22463 9.84498 4.1523 9.67607 4.1523 9.49995C4.1523 9.49995 4.2118 7.94824 4.19212 6.17959H2.945C2.88722 6.17967 2.83161 6.20089 2.78933 6.239C2.74706 6.2771 2.72125 6.32926 2.71709 6.38501L1.93221 17.0101C1.92994 17.0405 1.93417 17.071 1.94462 17.0996C1.95507 17.1283 1.97153 17.1546 1.99296 17.1769C2.01439 17.1992 2.04033 17.2169 2.06917 17.2291C2.09801 17.2412 2.12913 17.2475 2.16058 17.2474H14.8395C14.8709 17.2473 14.902 17.241 14.9308 17.2288C14.9595 17.2166 14.9854 17.1989 15.0068 17.1766C15.0282 17.1544 15.0447 17.1281 15.0552 17.0995C15.0657 17.0709 15.07 17.0405 15.0679 17.0101L14.283 6.38501C14.2788 6.32926 14.253 6.2771 14.2108 6.239C14.1685 6.20089 14.1129 6.17967 14.0551 6.17959H12.8478ZM11.4748 4.85145V4.6301C11.4748 3.8669 11.1614 3.13496 10.6035 2.5953C10.0457 2.05564 9.28901 1.75246 8.50005 1.75246C7.71109 1.75246 6.95444 2.05564 6.39657 2.5953C5.83869 3.13496 5.52528 3.8669 5.52528 4.6301V4.85145H11.4748Z" fill="#1E1E1E"/>
</svg>