<svg width="104" height="47" viewBox="0 0 104 47" fill="none" xmlns="http://www.w3.org/2000/svg">
<path d="M2.2 36C1.83333 36 1.53333 35.8833 1.3 35.65C1.06667 35.4167 0.95 35.1167 0.95 34.75V1.75C0.95 1.38333 1.06667 1.08333 1.3 0.85C1.53333 0.616665 1.83333 0.499998 2.2 0.499998H8.1C8.46667 0.499998 8.76667 0.616665 9 0.85C9.23333 1.08333 9.35 1.38333 9.35 1.75V34.75C9.35 35.1167 9.23333 35.4167 9 35.65C8.76667 35.8833 8.46667 36 8.1 36H2.2ZM27.5566 36.5C24.7566 36.5 22.39 36.05 20.4566 35.15C18.5566 34.25 17.09 32.9667 16.0566 31.3C15.0566 29.6 14.49 27.5833 14.3566 25.25C14.3233 24.5833 14.3066 23.8333 14.3066 23C14.3066 22.1333 14.3233 21.3833 14.3566 20.75C14.49 18.3833 15.09 16.3667 16.1566 14.7C17.2233 13.0333 18.7066 11.75 20.6066 10.85C22.54 9.95 24.8566 9.5 27.5566 9.5C30.29 9.5 32.6066 9.95 34.5066 10.85C36.44 11.75 37.94 13.0333 39.0066 14.7C40.0733 16.3667 40.6733 18.3833 40.8066 20.75C40.84 21.3833 40.8566 22.1333 40.8566 23C40.8566 23.8333 40.84 24.5833 40.8066 25.25C40.6733 27.5833 40.09 29.6 39.0566 31.3C38.0566 32.9667 36.59 34.25 34.6566 35.15C32.7566 36.05 30.39 36.5 27.5566 36.5ZM27.5566 30.4C29.0566 30.4 30.14 29.95 30.8066 29.05C31.5066 28.15 31.9066 26.8 32.0066 25C32.04 24.5 32.0566 23.8333 32.0566 23C32.0566 22.1667 32.04 21.5 32.0066 21C31.9066 19.2333 31.5066 17.9 30.8066 17C30.14 16.0667 29.0566 15.6 27.5566 15.6C26.09 15.6 25.0066 16.0667 24.3066 17C23.6066 17.9 23.2233 19.2333 23.1566 21C23.1233 21.5 23.1066 22.1667 23.1066 23C23.1066 23.8333 23.1233 24.5 23.1566 25C23.2233 26.8 23.6066 28.15 24.3066 29.05C25.0066 29.95 26.09 30.4 27.5566 30.4ZM58.5242 47C55.9576 47 53.8242 46.6667 52.1242 46C50.4576 45.3333 49.1242 44.5333 48.1242 43.6C47.1576 42.6667 46.4576 41.7333 46.0242 40.8C45.5909 39.9 45.3576 39.1833 45.3242 38.65C45.2909 38.2833 45.4076 37.9833 45.6742 37.75C45.9409 37.5167 46.2576 37.4 46.6242 37.4H52.9742C53.2742 37.4 53.5242 37.4667 53.7242 37.6C53.9576 37.7667 54.1409 38.0333 54.2742 38.4C54.4409 38.7667 54.6576 39.15 54.9242 39.55C55.2242 39.95 55.6242 40.2667 56.1242 40.5C56.6576 40.7667 57.3742 40.9 58.2742 40.9C59.2742 40.9 60.1076 40.7333 60.7742 40.4C61.4409 40.1 61.9409 39.5833 62.2742 38.85C62.6076 38.15 62.7742 37.2 62.7742 36V32.65C62.0076 33.4833 61.0242 34.1667 59.8242 34.7C58.6242 35.2 57.1742 35.45 55.4742 35.45C53.7742 35.45 52.2742 35.2 50.9742 34.7C49.6742 34.2 48.5909 33.45 47.7242 32.45C46.8576 31.45 46.1742 30.2333 45.6742 28.8C45.2076 27.3667 44.9242 25.7167 44.8242 23.85C44.7909 22.9833 44.7909 22.1167 44.8242 21.25C44.9242 19.45 45.2076 17.8333 45.6742 16.4C46.1409 14.9667 46.8076 13.7333 47.6742 12.7C48.5742 11.6667 49.6742 10.8833 50.9742 10.35C52.2742 9.78333 53.7742 9.5 55.4742 9.5C57.2742 9.5 58.8076 9.85 60.0742 10.55C61.3742 11.2167 62.4409 12.0667 63.2742 13.1V11.25C63.2742 10.9167 63.3909 10.6333 63.6242 10.4C63.8576 10.1333 64.1576 10 64.5242 10H70.2742C70.6409 10 70.9409 10.1333 71.1742 10.4C71.4409 10.6333 71.5742 10.9167 71.5742 11.25V35.3C71.5742 37.8333 71.0576 39.9667 70.0242 41.7C68.9909 43.4333 67.5076 44.75 65.5742 45.65C63.6409 46.55 61.2909 47 58.5242 47ZM58.1742 28.95C59.2409 28.95 60.1076 28.7167 60.7742 28.25C61.4409 27.7833 61.9242 27.1833 62.2242 26.45C62.5576 25.7167 62.7409 24.9333 62.7742 24.1C62.8076 23.7333 62.8242 23.2167 62.8242 22.55C62.8242 21.8833 62.8076 21.3833 62.7742 21.05C62.7409 20.1833 62.5576 19.3833 62.2242 18.65C61.9242 17.9167 61.4409 17.3333 60.7742 16.9C60.1076 16.4333 59.2409 16.2 58.1742 16.2C57.0742 16.2 56.1909 16.4333 55.5242 16.9C54.8909 17.3667 54.4242 18 54.1242 18.8C53.8576 19.6 53.6909 20.4833 53.6242 21.45C53.5909 22.1833 53.5909 22.9333 53.6242 23.7C53.6909 24.6667 53.8576 25.55 54.1242 26.35C54.4242 27.15 54.8909 27.7833 55.5242 28.25C56.1909 28.7167 57.0742 28.95 58.1742 28.95ZM89.7637 36.5C86.9637 36.5 84.597 36.05 82.6637 35.15C80.7637 34.25 79.297 32.9667 78.2637 31.3C77.2637 29.6 76.697 27.5833 76.5637 25.25C76.5303 24.5833 76.5137 23.8333 76.5137 23C76.5137 22.1333 76.5303 21.3833 76.5637 20.75C76.697 18.3833 77.297 16.3667 78.3637 14.7C79.4303 13.0333 80.9137 11.75 82.8137 10.85C84.747 9.95 87.0637 9.5 89.7637 9.5C92.497 9.5 94.8137 9.95 96.7137 10.85C98.647 11.75 100.147 13.0333 101.214 14.7C102.28 16.3667 102.88 18.3833 103.014 20.75C103.047 21.3833 103.064 22.1333 103.064 23C103.064 23.8333 103.047 24.5833 103.014 25.25C102.88 27.5833 102.297 29.6 101.264 31.3C100.264 32.9667 98.797 34.25 96.8637 35.15C94.9637 36.05 92.597 36.5 89.7637 36.5ZM89.7637 30.4C91.2637 30.4 92.347 29.95 93.0137 29.05C93.7137 28.15 94.1137 26.8 94.2137 25C94.247 24.5 94.2637 23.8333 94.2637 23C94.2637 22.1667 94.247 21.5 94.2137 21C94.1137 19.2333 93.7137 17.9 93.0137 17C92.347 16.0667 91.2637 15.6 89.7637 15.6C88.297 15.6 87.2137 16.0667 86.5137 17C85.8137 17.9 85.4303 19.2333 85.3637 21C85.3303 21.5 85.3137 22.1667 85.3137 23C85.3137 23.8333 85.3303 24.5 85.3637 25C85.4303 26.8 85.8137 28.15 86.5137 29.05C87.2137 29.95 88.297 30.4 89.7637 30.4Z" fill="#1E1E1E"/>
</svg>