<svg width="94" height="94" viewBox="0 0 94 94" fill="none" xmlns="http://www.w3.org/2000/svg">
<path d="M47 7.8335C39.2536 7.8335 31.6811 10.1306 25.2402 14.4343C18.7992 18.738 13.7792 24.855 10.8147 32.0117C7.85029 39.1685 7.07466 47.0436 8.58591 54.6412C10.0972 62.2388 13.8274 69.2176 19.305 74.6952C24.7825 80.1727 31.7614 83.903 39.359 85.4143C46.9566 86.9255 54.8317 86.1499 61.9884 83.1854C69.1452 80.221 75.2622 75.2009 79.5659 68.76C83.8696 62.3191 86.1667 54.7466 86.1667 47.0002C86.1667 41.8567 85.1536 36.7636 83.1853 32.0117C81.217 27.2598 78.332 22.9421 74.695 19.3051C71.0581 15.6682 66.7404 12.7832 61.9884 10.8149C57.2365 8.84657 52.1434 7.8335 47 7.8335ZM39.1667 64.6252V29.3752L62.6667 47.0002L39.1667 64.6252Z" fill="#1E1E1E"/>
</svg>