<svg width="16" height="16" viewBox="0 0 16 16" fill="none" xmlns="http://www.w3.org/2000/svg">
    <path
        d="M14.3962 13.6766L11.2014 10.4819C11.9955 9.52692 12.4739 8.30064 12.4739 6.9645C12.4739 3.92631 10.0023 1.45456 6.96427 1.45456C3.92618 1.45456 1.45453 3.92631 1.45453 6.9645C1.45453 10.0025 3.92618 12.474 6.96427 12.474C8.30033 12.474 9.52666 11.9957 10.4816 11.2016L13.6765 14.3964C13.7237 14.4437 13.7797 14.4813 13.8415 14.5068C13.9033 14.5324 13.9695 14.5456 14.0363 14.5455C14.137 14.5455 14.2355 14.5157 14.3192 14.4598C14.4029 14.4039 14.4682 14.3244 14.5067 14.2314C14.5452 14.1383 14.5553 14.036 14.5356 13.9372C14.516 13.8385 14.4674 13.7478 14.3962 13.6766ZM2.47245 6.9645C2.47245 4.4876 4.48746 2.47249 6.96427 2.47249C9.44101 2.47249 11.456 4.4876 11.456 6.9645C11.456 9.44121 9.44101 11.4561 6.96427 11.4561C4.48746 11.4561 2.47245 9.44121 2.47245 6.9645Z"
        fill="#1E1E1E" />
</svg>